# xmcd
#
# Track frame offsets:
#	187
#	21427
#	38937
#	55227
#	72345
#	91307
#	109382
#	125092
#	144307
#	161980
#	179035
#	195560
#	209910
#	229775
#	246547
#
# Disc length: 3549 seconds
#
# Revision: 1
# Processed by: cddbd v1.5.1PL0 Copyright (c) Steve Scherf et al.
# Submitted via: CDex 1.50Beta5
#
DISCID=f20ddb0f
DTITLE=Various Artist - ニューミュージック 1694
DYEAR=1900
DGENRE=
TTITLE0=大橋純子/シルエット・ロマンス
TTITLE1=大橋純子/たそがれマイ・ラブ
TTITLE2=大橋純子/燃えつきて
TTITLE3=大橋純子/シンプル・ラブ
TTITLE4=大橋純子/サファリナイト
TTITLE5=もんた&ブラザーズ/ダンシング・オールナイト
TTITLE6=もんた&ブラザーズ/デザイアー
TTITLE7=もんた&ブラザーズ/赤いアンブレラ
TTITLE8=もんたよしのり・大橋純子/夏女ソニア
TTITLE9=石川セリ/MOONILIGHT SURFER
TTITLE10=石川セリ/ときどき私は
TTITLE11=石川セリ/八月の濡れた砂
TTITLE12=桃井かおり/バイバイ子守唄
TTITLE13=桃井かおり/蜃気楼のように
TTITLE14=内藤やす子/六本木ララバイ
EXTD=
EXTT0=
EXTT1=
EXTT2=
EXTT3=
EXTT4=
EXTT5=
EXTT6=
EXTT7=
EXTT8=
EXTT9=
EXTT10=
EXTT11=
EXTT12=
EXTT13=
EXTT14=
PLAYORDER=
